<svg id="Layer_1" data-name="Layer 1" xmlns="http://www.w3.org/2000/svg" xmlns:xlink="http://www.w3.org/1999/xlink" viewBox="0 0 491.72 491.86"><defs><style>.cls-1,.cls-8{fill:none;}.cls-2{fill:url(#linear-gradient);}.cls-3{fill:#fff;}.cls-4{fill:url(#linear-gradient-2);}.cls-5{fill:url(#linear-gradient-3);}.cls-6{fill:#be1e2d;}.cls-7{fill:url(#linear-gradient-4);}.cls-8{stroke:#bbbdbf;stroke-miterlimit:10;stroke-width:13.08px;}</style><linearGradient id="linear-gradient" x1="300" y1="54.14" x2="300" y2="546" gradientUnits="userSpaceOnUse"><stop offset="0" stop-color="#eb5d2f"/><stop offset="1" stop-color="#924140"/></linearGradient><linearGradient id="linear-gradient-2" x1="233.19" y1="352.13" x2="366.32" y2="352.13" gradientUnits="userSpaceOnUse"><stop offset="0" stop-color="#5b6b72"/><stop offset="0.06" stop-color="#627278"/><stop offset="0.35" stop-color="#849097"/><stop offset="0.51" stop-color="#919ca2"/><stop offset="0.63" stop-color="#8b979d"/><stop offset="0.79" stop-color="#7b888f"/><stop offset="0.97" stop-color="#617077"/><stop offset="1" stop-color="#5b6b72"/></linearGradient><linearGradient id="linear-gradient-3" x1="221.52" y1="173.49" x2="221.52" y2="258.12" gradientUnits="userSpaceOnUse"><stop offset="0.06" stop-color="#abb8bd"/><stop offset="1" stop-color="#5b6b72"/></linearGradient><linearGradient id="linear-gradient-4" x1="266.33" y1="257.15" x2="313.93" y2="304.75" gradientUnits="userSpaceOnUse"><stop offset="0" stop-color="#d51f30"/><stop offset="1" stop-color="#992121"/></linearGradient></defs><title>ModuleIcon_SettingsUtilities2</title><ellipse class="cls-1" cx="300" cy="545.86" ry="0.01" transform="translate(-79.77 -39.25) rotate(-2.73)"/><path class="cls-2" d="M300,546c6.92,0,13.78-.36,20.56-0.92a13.55,13.55,0,0,0,11.9-16.63,59.21,59.21,0,0,1-.22-23.73c4.81-25.14,26.42-44.63,51.9-47A58.6,58.6,0,0,1,439,484.15a13.53,13.53,0,0,0,20.16,3.18,247.29,247.29,0,0,0,32.21-33.09c4.41-5.47,4.28-13.55-1-18.23a58.46,58.46,0,0,1-19.33-49.78c2-19.55,14.6-36.64,32-45.82a55.48,55.48,0,0,1,27.86-6.79,13.63,13.63,0,0,0,14-12.47q0.91-10.46.93-21.16,0-10.35-.88-20.48A13.64,13.64,0,0,0,530.92,267a55.55,55.55,0,0,1-27.59-6.63c-17.49-9.11-30.24-26.25-32.24-45.87a58.48,58.48,0,0,1,19.57-50.12c5.24-4.62,5.5-12.71,1.12-18.16a247.26,247.26,0,0,0-34.24-34.95,13.64,13.64,0,0,0-19.9,2.84A58.64,58.64,0,0,1,332.81,94.29a59.87,59.87,0,0,1-.9-23.47,13.51,13.51,0,0,0-12.09-15.88Q310,54.15,300,54.14a243.51,243.51,0,0,0-29.18,1.77,13.62,13.62,0,0,0-11.72,15.7,59.56,59.56,0,0,1-1.33,23.86A58.61,58.61,0,0,1,156,117.75a13.53,13.53,0,0,0-19.4-1.38,247.19,247.19,0,0,0-27.92,29.29c-4.44,5.5-4.17,13.69,1.18,18.3a58.55,58.55,0,0,1,20,50.68c-2.06,19.88-15.06,37.29-32.94,46.22A55.85,55.85,0,0,1,69.28,267,13.63,13.63,0,0,0,55,279.48q-0.86,10.15-.88,20.52,0,10.72.93,21.2a13.64,13.64,0,0,0,14.25,12.45,55.84,55.84,0,0,1,27.59,6.12c17.86,8.89,30.88,26.21,33,46a58.52,58.52,0,0,1-19.77,50.65c-5.31,4.63-5.56,12.79-1.13,18.26A247.24,247.24,0,0,0,134.84,482a13.53,13.53,0,0,0,19.8-1.79A58.64,58.64,0,0,1,258.59,527.6a13.68,13.68,0,0,0,11.53,16.49A244.31,244.31,0,0,0,300,546h0ZM142,297.5a158,158,0,1,1,158,158A158,158,0,0,1,142,297.5Z" transform="translate(-54.14 -54.14)"/><path class="cls-3" d="M211,299.93V300h0S211,300,211,299.93Z" transform="translate(-54.14 -54.14)"/><path class="cls-3" d="M384.5,300v-0.07s0,0,0,.07h0Z" transform="translate(-54.14 -54.14)"/><path class="cls-4" d="M233.19,348.42s59.74-21.3,106.23-6L366.32,356l-7.08,11.15s-60.67-12.92-118.89.26Z" transform="translate(-54.14 -54.14)"/><polygon class="cls-5" points="233.64 231.84 209.32 258.12 209.32 173.49 233.72 173.49 233.64 231.84"/><polygon class="cls-6" points="233.64 231.84 169.23 296.26 186.21 313.24 209.32 290.12 233.64 231.84"/><polygon class="cls-7" points="305.1 312.98 257.79 265.73 274.86 248.61 322.49 296.19 305.1 312.98"/><circle class="cls-8" cx="245.86" cy="243.36" r="142.34"/></svg>